#N canvas 527 109 635 634 10;
#X obj 92 166 metro 500;
#X obj 111 92 tgl 15 0 empty empty empty 17 7 0 10 -262144 -1 -1 1
1;
#X obj 183 144 expr 60000/$f1;
#X obj 181 49 r bpm;
#X obj 86 47 r bang;
#X obj 182 471 *~;
#X obj 181 506 dac~;
#X obj 281 365 vsl 30 70 0 1 0 0 empty empty empty 0 -9 0 10 -262144
-1 -1 1725 1;
#X obj 44 135 s onOff;
#X obj 107 305 moses;
#X msg 187 258 0;
#X floatatom 65 237 5 0 0 0 - - -;
#X obj 222 330 r volume;
#X floatatom 271 473 5 0 0 0 - - -;
#X msg 272 88 90;
#X msg 313 87 4;
#X msg 410 85 0.25;
#X obj 100 407 readsf~;
#X obj 61 315 bng 15 250 50 0 empty empty empty 17 7 0 10 -262144 -1
-1;
#X obj 212 195 r timing;
#X obj 178 397 bng 15 250 50 0 empty empty empty 17 7 0 10 -262144
-1 -1;
#X obj 248 285 r onOff;
#X msg 108 204 1;
#X obj 114 237 +;
#X msg 22 358 open tock.wav \, 1;
#X msg 136 358 open tick.wav \, 1;
#X msg 363 88 1;
#X obj 183 119 *;
#X obj 266 236 *;
#X floatatom 292 264 5 0 0 0 - - -;
#X floatatom 169 192 5 0 0 0 - - -;
#X obj 337 49 t b b b b;
#X obj 336 17 loadbang;
#X obj 451 101 r npb;
#X floatatom 340 124 5 0 0 0 - - -;
#X connect 0 0 22 0;
#X connect 1 0 0 0;
#X connect 1 0 8 0;
#X connect 2 0 0 1;
#X connect 2 0 30 0;
#X connect 3 0 27 0;
#X connect 4 0 1 0;
#X connect 5 0 6 0;
#X connect 5 0 6 1;
#X connect 7 0 5 1;
#X connect 7 0 13 0;
#X connect 9 0 24 0;
#X connect 9 0 18 0;
#X connect 9 1 10 0;
#X connect 9 1 25 0;
#X connect 10 0 23 1;
#X connect 11 0 23 1;
#X connect 12 0 7 0;
#X connect 14 0 27 0;
#X connect 15 0 28 0;
#X connect 16 0 7 0;
#X connect 17 0 5 0;
#X connect 19 0 28 0;
#X connect 22 0 23 0;
#X connect 23 0 11 0;
#X connect 23 0 9 0;
#X connect 24 0 17 0;
#X connect 25 0 17 0;
#X connect 25 0 20 0;
#X connect 26 0 34 0;
#X connect 27 0 2 0;
#X connect 28 0 9 1;
#X connect 28 0 29 0;
#X connect 31 0 14 0;
#X connect 31 1 15 0;
#X connect 31 2 26 0;
#X connect 31 3 16 0;
#X connect 32 0 31 0;
#X connect 33 0 34 0;
#X connect 34 0 28 1;
#X connect 34 0 27 1;
