#N canvas 198 118 635 634 10;
#X obj 112 161 metro 500;
#X obj 111 91 tgl 15 0 empty empty empty 17 7 0 10 -262144 -1 -1 1
1;
#X obj 183 144 expr 60000/$f1;
#X obj 181 49 r bpm;
#X obj 86 47 r bang;
#X obj 182 471 *~;
#X obj 181 506 dac~;
#X obj 281 365 vsl 30 70 0 1 0 0 empty empty empty 0 -9 0 10 -262144
-1 -1 1725 1;
#N canvas 644 127 722 532 tick 0;
#X obj 205 111 soundfiler;
#X obj 205 169 expr 44100/$f1;
#X obj 229 301 phasor~;
#X obj 240 336 *~;
#X obj 240 375 tabread4~ tickS;
#X msg 301 279 0;
#X msg 205 75 read -resize \$1 tickS;
#X obj 214 254 spigot;
#X floatatom 205 224 5 0 0 0 - - -;
#X obj 83 304 tgl 15 0 empty empty empty 17 7 0 10 -262144 -1 -1 1
1;
#X obj 83 354 snapshot~;
#X obj 83 391 /;
#X obj 83 447 spigot;
#N canvas 0 0 450 300 (subpatch) 0;
#X array tickS 5513 float 2;
#X coords 0 1 5513 -1 200 140 1;
#X restore 474 54 graph;
#X obj 239 410 outlet~;
#X obj 113 177 inlet;
#X obj 205 19 r fileTick;
#X obj 225 141 s tickSize;
#X obj 135 374 r tickSize;
#X obj 277 321 r tickSize;
#X obj 83 500 s stopTick;
#X obj 367 225 r stopTick;
#X obj 275 197 r onOff;
#X obj 14 276 r onOff;
#X msg 83 477 0;
#X obj 118 275 r stopTick;
#X msg 80 272 1;
#X obj 275 226 moses 1;
#X obj 83 419 >= 0.7;
#X obj 83 328 metro 20;
#X msg 206 48 open tick.wav;
#X connect 0 0 1 0;
#X connect 0 0 17 0;
#X connect 1 0 8 0;
#X connect 2 0 3 0;
#X connect 3 0 4 0;
#X connect 3 0 10 0;
#X connect 4 0 14 0;
#X connect 5 0 2 0;
#X connect 5 0 2 1;
#X connect 6 0 0 0;
#X connect 7 0 2 0;
#X connect 8 0 7 0;
#X connect 9 0 29 0;
#X connect 10 0 11 0;
#X connect 11 0 28 0;
#X connect 12 0 24 0;
#X connect 15 0 8 0;
#X connect 15 0 26 0;
#X connect 16 0 30 0;
#X connect 18 0 11 1;
#X connect 19 0 3 1;
#X connect 21 0 5 0;
#X connect 22 0 27 0;
#X connect 23 0 9 0;
#X connect 24 0 20 0;
#X connect 25 0 9 0;
#X connect 26 0 9 0;
#X connect 27 0 5 0;
#X connect 27 0 7 1;
#X connect 27 1 7 1;
#X connect 28 0 12 1;
#X connect 28 0 12 0;
#X connect 29 0 10 0;
#X connect 30 0 6 0;
#X restore 97 417 pd tick;
#N canvas 199 195 722 539 tock 0;
#X obj 215 115 soundfiler;
#X obj 215 173 expr 44100/$f1;
#X obj 256 309 phasor~;
#X obj 258 338 *~;
#X msg 302 285 0;
#X obj 224 258 spigot;
#X floatatom 215 228 5 0 0 0 - - -;
#X obj 118 305 tgl 15 0 empty empty empty 17 7 0 10 -262144 -1 -1 1
1;
#X obj 118 355 snapshot~;
#X obj 118 392 /;
#X obj 118 448 spigot;
#N canvas 0 0 450 300 (subpatch) 0;
#X array tockS 5513 float 2;
#X coords 0 1 5513 -1 200 140 1;
#X restore 484 64 graph;
#X obj 257 412 outlet~;
#X obj 148 178 inlet;
#X obj 285 201 r onOff;
#X obj 49 277 r onOff;
#X msg 118 478 0;
#X msg 115 273 1;
#X msg 215 79 read -resize \$1 tockS;
#X obj 235 145 s tockSize;
#X obj 377 229 r stopTock;
#X obj 118 501 s stopTock;
#X obj 295 323 r tockSize;
#X obj 170 375 r tockSize;
#X obj 153 276 r stopTock;
#X obj 258 377 tabread4~ tockS;
#X obj 286 231 moses 1;
#X obj 118 420 >= 0.7;
#X obj 118 329 metro 20;
#X obj 214 21 r fileTick;
#X msg 215 50 open tock.wav;
#X connect 0 0 1 0;
#X connect 0 0 19 0;
#X connect 1 0 6 0;
#X connect 2 0 3 0;
#X connect 3 0 8 0;
#X connect 3 0 25 0;
#X connect 4 0 2 0;
#X connect 4 0 2 1;
#X connect 5 0 2 0;
#X connect 6 0 5 0;
#X connect 7 0 28 0;
#X connect 8 0 9 0;
#X connect 9 0 27 0;
#X connect 10 0 16 0;
#X connect 13 0 6 0;
#X connect 13 0 17 0;
#X connect 14 0 26 0;
#X connect 15 0 7 0;
#X connect 16 0 21 0;
#X connect 17 0 7 0;
#X connect 18 0 0 0;
#X connect 20 0 4 0;
#X connect 22 0 3 1;
#X connect 23 0 9 1;
#X connect 24 0 7 0;
#X connect 25 0 12 0;
#X connect 26 0 4 0;
#X connect 26 0 5 1;
#X connect 26 1 5 1;
#X connect 27 0 10 1;
#X connect 27 0 10 0;
#X connect 28 0 8 0;
#X connect 29 0 30 0;
#X connect 30 0 18 0;
#X restore 166 418 pd tock;
#X obj 463 159 s fileTick;
#X obj 44 135 s onOff;
#X obj 109 342 bng 15 250 50 0 empty empty empty 17 7 0 10 -262144
-1 -1;
#X obj 137 380 bng 15 250 50 0 empty empty empty 17 7 0 10 -262144
-1 -1;
#X msg 197 328 0;
#X msg 112 208 1;
#X obj 114 237 +;
#X floatatom 65 237 5 0 0 0 - - -;
#X obj 256 180 r timing;
#X obj 250 307 r volume;
#X floatatom 271 473 5 0 0 0 - - -;
#X msg 371 66 90;
#X msg 340 66 4;
#X msg 439 66 0.25;
#X obj 199 293 r onOff;
#X obj 108 305 moses 2;
#X obj 194 361 moses;
#X obj 242 115 *;
#X msg 405 66 1;
#X obj 273 235 *;
#X floatatom 349 106 5 0 0 0 - - -;
#X obj 293 77 r npb;
#X obj 367 33 t b b b b;
#X obj 366 6 loadbang;
#X connect 0 0 15 0;
#X connect 1 0 0 0;
#X connect 1 0 11 0;
#X connect 2 0 0 1;
#X connect 3 0 27 0;
#X connect 4 0 1 0;
#X connect 5 0 6 0;
#X connect 5 0 6 1;
#X connect 7 0 5 1;
#X connect 7 0 20 0;
#X connect 8 0 5 0;
#X connect 9 0 5 0;
#X connect 12 0 8 0;
#X connect 13 0 9 0;
#X connect 14 0 16 1;
#X connect 15 0 16 0;
#X connect 16 0 17 0;
#X connect 16 0 25 0;
#X connect 17 0 16 1;
#X connect 18 0 29 0;
#X connect 19 0 7 0;
#X connect 21 0 27 0;
#X connect 22 0 29 0;
#X connect 23 0 7 0;
#X connect 23 0 10 0;
#X connect 24 0 14 0;
#X connect 25 0 12 0;
#X connect 25 1 13 0;
#X connect 25 1 26 0;
#X connect 26 1 14 0;
#X connect 27 0 2 0;
#X connect 28 0 30 0;
#X connect 29 0 26 1;
#X connect 30 0 29 1;
#X connect 30 0 27 1;
#X connect 31 0 30 0;
#X connect 32 0 22 0;
#X connect 32 1 21 0;
#X connect 32 2 28 0;
#X connect 32 3 23 0;
#X connect 33 0 32 0;
