#N canvas -8 -8 1366 685 10;
#X obj 141 182 fiddle~ 4096;
#X floatatom 57 239 5 0 0 0 - - -;
#X obj 187 211 unpack;
#X floatatom 182 248 5 0 0 0 - - -;
#X floatatom 227 248 5 0 0 0 - - -;
#X obj 141 134 adc~;
#X obj 131 341 spigot;
#X floatatom 122 406 5 0 0 0 - - -;
#X obj 123 450 s midiPitch;
#X obj 212 303 >= 70;
#X connect 0 0 1 0;
#X connect 0 0 6 0;
#X connect 0 2 2 0;
#X connect 2 0 3 0;
#X connect 2 1 4 0;
#X connect 4 0 9 0;
#X connect 5 0 0 0;
#X connect 6 0 7 0;
#X connect 7 0 8 0;
#X connect 9 0 6 1;
